<?xml version="1.0" encoding="UTF-8"?>
<svg version="1.1" xmlns="http://www.w3.org/2000/svg" width="343" height="325">
<path d="M0 0 C113.19 0 226.38 0 343 0 C343 107.25 343 214.5 343 325 C229.81 325 116.62 325 0 325 C0 217.75 0 110.5 0 0 Z " fill="#262931" transform="translate(0,0)"/>
<path d="M0 0 C0.66 0 1.32 0 2 0 C2.99 2.97 2.99 2.97 4 6 C4.66 6 5.32 6 6 6 C6.20753906 6.51046875 6.41507813 7.0209375 6.62890625 7.546875 C9.14509914 13.4846691 12.23229102 18.90712867 15.609375 24.3984375 C17 27 17 27 17 30 C17.66 30 18.32 30 19 30 C19.33 31.65 19.66 33.3 20 35 C20.66 35 21.32 35 22 35 C22.29390625 35.56203125 22.5878125 36.1240625 22.890625 36.703125 C26.39231495 43.2637625 30.15373638 49.63660071 34 56 C37.62750714 62.00348581 41.16723874 68.01669764 44.46875 74.20703125 C46.44388581 77.80963866 48.53183844 81.34000855 50.625 84.875 C54.39174012 91.23841076 58.09285582 97.63548708 61.75 104.0625 C66.0952764 111.69679691 70.49809389 119.29507742 74.9375 126.875 C80.19338708 135.85069456 85.34064798 144.88213318 90.43481445 153.95043945 C94.23227512 160.69226969 98.1528833 167.34385671 102.1953125 173.94140625 C107 182.08441558 107 182.08441558 107 185 C107.66 185 108.32 185 109 185 C109.27972656 185.59425781 109.55945313 186.18851563 109.84765625 186.80078125 C112.12996728 191.51951435 114.56404129 195.98818637 117.4375 200.375 C120.55201441 205.15148956 123.09857315 210.05994678 125.57421875 215.19140625 C126.89395092 217.79109785 128.3390704 220.1899268 129.9375 222.625 C130.618125 223.73875 131.29875 224.8525 132 226 C131.67 226.66 131.34 227.32 131 228 C126.0106027 222.61478412 121.11060535 217.21583096 116.5 211.5 C113.44651321 207.71539666 110.29331699 204.07792463 107 200.5 C103.70668301 196.92207537 100.55348679 193.28460334 97.5 189.5 C93.61417695 184.68734636 89.5252432 180.10767981 85.33984375 175.5546875 C82.76890424 172.74768509 80.26428828 169.89014598 77.76953125 167.015625 C75.74885044 164.71392236 73.68687382 162.45235621 71.625 160.1875 C68.51471149 156.74621795 65.53521688 153.23678702 62.625 149.625 C59.38044902 145.61170523 56.01227077 141.77611762 52.5 138 C38.7168081 123.15042431 38.7168081 123.15042431 37 118 C36.34 118 35.68 118 35 118 C33.64902626 116.48848454 32.37072655 114.91186687 31.125 113.3125 C27.57548699 108.86704882 23.89455994 104.64490238 20 100.5 C15.38412643 95.57605923 11.04735625 90.52312497 6.83984375 85.2421875 C6.23269531 84.50226563 5.62554687 83.76234375 5 83 C4.50628906 82.38382812 4.01257813 81.76765625 3.50390625 81.1328125 C2.05690732 79.80522583 2.05690732 79.80522583 0.0703125 80.0078125 C-2.83702823 81.40114183 -4.1661426 83.3234256 -6.125 85.875 C-10.11656487 90.93667189 -14.31309057 95.71440844 -18.671875 100.4609375 C-22.79754719 104.9604122 -26.78605473 109.57344855 -30.74609375 114.21875 C-31.7680638 115.41680775 -32.79020431 116.6147201 -33.8125 117.8125 C-34.32965576 118.41852051 -34.84681152 119.02454102 -35.37963867 119.64892578 C-38.5847653 123.39032262 -41.85193729 127.06098478 -45.1875 130.6875 C-49.13833957 134.99579648 -52.85210072 139.44446227 -56.52734375 143.98828125 C-63.34642184 152.293983 -70.44239012 160.37170552 -77.75 168.25 C-81.11443389 171.88630734 -84.33407716 175.5763294 -87.4375 179.4375 C-91.80024187 184.85763891 -96.48176696 189.92569272 -101.22265625 195.01171875 C-107.52332262 201.77130436 -113.43990452 208.8621053 -119.3984375 215.921875 C-122.24783135 219.29664516 -125.11917943 222.65201934 -128 226 C-128.33 225.01 -128.66 224.02 -129 223 C-127.55859375 220.25 -127.55859375 220.25 -125.4375 217 C-122.2446646 212.07494577 -119.360906 207.07019113 -116.57299805 201.90429688 C-114.00055455 197.15467902 -111.34453938 192.45267142 -108.6875 187.75 C-108.12063477 186.74638428 -107.55376953 185.74276855 -106.96972656 184.70874023 C-103.45438579 178.50710152 -99.86163382 172.36308409 -96.16162109 166.27026367 C-93.62506489 162.08061241 -91.19659242 157.84055828 -88.8125 153.5625 C-85.02224192 146.76220664 -81.12012769 140.03138295 -77.1875 133.3125 C-72.75065381 125.73117944 -68.34498861 118.13434911 -64 110.5 C-59.19485674 102.06060725 -54.31770018 93.66518974 -49.4152832 85.28198242 C-45.14465785 77.97480441 -40.90902471 70.64813653 -36.6875 63.3125 C-30.92080212 53.29442988 -25.0897317 43.31581527 -19.23278809 33.35040283 C-12.73133321 22.28502012 -6.32842465 11.16529515 0 0 Z " fill="#2352B0" transform="translate(170,31)"/>
<path d="M0 0 C0.66 0 1.32 0 2 0 C2.24234375 0.50789062 2.4846875 1.01578125 2.734375 1.5390625 C4.32834721 4.8128362 5.88377951 7.83656494 8 10.8125 C9.76761649 13.62963878 10.74574726 15.89052926 11.8125 19 C14.00707376 25.32754536 16.97714872 31.18911835 20.03808594 37.12890625 C21.6708106 40.3048458 23.27466592 43.49514219 24.875 46.6875 C25.2059668 47.34709717 25.53693359 48.00669434 25.87792969 48.6862793 C28.89480265 54.72940785 31.77523027 60.83417815 34.65063477 66.94555664 C37.27510378 72.50916172 39.98891059 78.01941509 42.76513672 83.50854492 C46.50237442 90.93266558 50.0588405 98.44416475 53.61254883 105.95751953 C56.47100078 111.96165693 59.48482244 117.82480835 62.75976562 123.61328125 C64.36334403 126.69922268 65.24769143 129.61461142 66 133 C61.90272684 130.38611916 58.36820469 127.65303345 54.8125 124.3125 C50.24039122 120.08732631 45.52651387 116.1235268 40.68359375 112.21484375 C38.05291443 110.04367173 35.52057576 107.79758643 33 105.5 C28.70760499 101.58794379 24.25679354 97.92086277 19.7421875 94.26953125 C16.15656857 91.30194635 12.71713769 88.19014815 9.2890625 85.04296875 C8.53367187 84.36878906 7.77828125 83.69460937 7 83 C6.16210938 82.23300781 5.32421875 81.46601563 4.4609375 80.67578125 C2.22515588 78.83136502 2.22515588 78.83136502 0.03515625 78.9375 C-2.93292809 80.48705651 -5.18100287 82.69000189 -7.5625 85 C-12.24863637 89.42197744 -17.06468021 93.57390871 -22.08203125 97.62109375 C-29.62344727 103.76931645 -36.98974379 110.14096935 -44.1875 116.6875 C-58.23909113 129.41303038 -58.23909113 129.41303038 -63 131 C-60.37040111 119.69272476 -54.20911215 109.29209568 -49 99 C-44.39087828 89.88350317 -39.89247143 80.72313412 -35.5 71.5 C-30.186831 60.35235278 -24.85650436 49.22339859 -18.95556641 38.37255859 C-15.48778667 31.99417237 -12.42381304 25.55890225 -9.58935547 18.875 C-6.79424742 12.35361821 -3.48140638 6.17976086 0 0 Z " fill="#2351AE" transform="translate(170,128)"/>
<path d="M0 0 C0.33 0 0.66 0 1 0 C1.05070815 6.33541445 1.08573696 12.67077657 1.10986328 19.00634766 C1.1199211 21.16164099 1.13356899 23.31692068 1.15087891 25.47216797 C1.17513662 28.57002124 1.18648532 31.66769409 1.1953125 34.765625 C1.20563507 35.72929993 1.21595764 36.69297485 1.22659302 37.68585205 C1.22674408 38.58648376 1.22689514 39.48711548 1.22705078 40.41503906 C1.231492 41.20557678 1.23593323 41.9961145 1.24050903 42.81060791 C0.97196847 45.25517547 0.21882157 46.88156035 -1 49 C-0.67 49.33 -0.34 49.66 0 50 C0.25342896 53.9309174 0.18523019 57.87438433 0.1875 61.8125 C0.19974609 62.91916016 0.21199219 64.02582031 0.22460938 65.16601562 C0.22654297 66.23142578 0.22847656 67.29683594 0.23046875 68.39453125 C0.23457764 69.37268799 0.23868652 70.35084473 0.24291992 71.35864258 C-0.00531791 74.05782359 -0.62114548 75.69211792 -2 78 C-2.66 78 -3.32 78 -4 78 C-4.2475 78.556875 -4.495 79.11375 -4.75 79.6875 C-6.88473784 83.63676501 -9.76434191 86.91141728 -13 90 C-15.05319412 92.05319412 -16.86110682 94.24741364 -18.69921875 96.4921875 C-20 98 -20 98 -22.1875 100 C-24.19969425 101.93318499 -24.19969425 101.93318499 -24.8515625 104.8203125 C-26.12538132 108.34714421 -27.6153173 110.17442952 -30.1875 112.875 C-30.99960938 113.74382812 -31.81171875 114.61265625 -32.6484375 115.5078125 C-33.42445313 116.33023438 -34.20046875 117.15265625 -35 118 C-36.11210589 119.24294188 -37.21689805 120.49248643 -38.3125 121.75 C-38.87195313 122.39195312 -39.43140625 123.03390625 -40.0078125 123.6953125 C-45.74102975 130.32785795 -51.43660634 136.99306316 -57.125 143.6640625 C-62.34210264 149.77632927 -67.60340468 155.8335341 -73 161.7890625 C-76.99196425 166.20205423 -80.88978872 170.69423089 -84.75 175.22265625 C-90.32855189 181.76408643 -95.96700947 188.22151193 -101.7734375 194.5625 C-107.83014598 201.19300192 -113.60703193 208.06049412 -119.3984375 214.921875 C-122.24783135 218.29664516 -125.11917943 221.65201934 -128 225 C-128.33 224.01 -128.66 223.02 -129 222 C-127.55859375 219.25 -127.55859375 219.25 -125.4375 216 C-122.2446646 211.07494577 -119.360906 206.07019113 -116.57299805 200.90429688 C-114.00055455 196.15467902 -111.34453938 191.45267142 -108.6875 186.75 C-108.12063477 185.74638428 -107.55376953 184.74276855 -106.96972656 183.70874023 C-103.45438579 177.50710152 -99.86163382 171.36308409 -96.16162109 165.27026367 C-93.62506489 161.08061241 -91.19659242 156.84055828 -88.8125 152.5625 C-85.02224192 145.76220664 -81.12012769 139.03138295 -77.1875 132.3125 C-72.75065381 124.73117944 -68.34498861 117.13434911 -64 109.5 C-59.19485674 101.06060725 -54.31770018 92.66518974 -49.4152832 84.28198242 C-45.14465684 76.97480269 -40.90926576 69.64799888 -36.6875 62.3125 C-26.25249766 44.19682197 -15.69758419 26.14948258 -5 8.1875 C-4.50153564 7.34525879 -4.00307129 6.50301758 -3.48950195 5.63525391 C-2.35483993 3.73948114 -1.182088 1.86656911 0 0 Z " fill="#2F6BCC" transform="translate(170,32)"/>
<path d="M0 0 C0.33 0 0.66 0 1 0 C1.06408792 16.00028929 1.06840023 31.99971082 1 48 C0.99718018 48.85287598 0.99436035 49.70575195 0.99145508 50.58447266 C0.9734722 55.30765153 0.91074721 60.02764888 0.8125 64.75 C0.80677979 65.86407227 0.80105957 66.97814453 0.79516602 68.12597656 C0.58674603 75.32887892 0.58674603 75.32887892 -2.36328125 78.703125 C-5 80 -5 80 -8 80 C-8 80.66 -8 81.32 -8 82 C-8.99 82.33 -9.98 82.66 -11 83 C-11.309375 83.61875 -11.61875 84.2375 -11.9375 84.875 C-13.21806002 87.43612005 -14.59166899 88.49479312 -17 90 C-17.66 90 -18.32 90 -19 90 C-19 90.66 -19 91.32 -19 92 C-21.1171875 93.7265625 -21.1171875 93.7265625 -23.875 95.625 C-24.77992188 96.25664062 -25.68484375 96.88828125 -26.6171875 97.5390625 C-29 99 -29 99 -31 99 C-31.226875 99.556875 -31.45375 100.11375 -31.6875 100.6875 C-35.38768358 107.20687106 -42.79628804 112.86419202 -49 117 C-50 113.125 -50 113.125 -50 112 C-51.485 112.495 -51.485 112.495 -53 113 C-51.91562114 108.87936035 -50.23748489 105.72296838 -47.9375 102.1875 C-45.90112476 98.91180331 -44.70512076 96.67286411 -44.625 92.8125 C-44.32296473 86.86552962 -41.08567914 82.15437484 -38.24609375 77.08984375 C-35.96174339 73.0024215 -33.96059499 68.81280547 -32 64.5625 C-29.41045991 58.98001139 -26.76293935 53.43641662 -24 47.9375 C-23.66782471 47.27637207 -23.33564941 46.61524414 -22.9934082 45.93408203 C-21.68100403 43.32712519 -20.36494462 40.72202486 -19.04833984 38.1171875 C-18.09280353 36.2249188 -17.13938083 34.33161014 -16.1875 32.4375 C-15.87031006 31.80634277 -15.55312012 31.17518555 -15.22631836 30.52490234 C-11.57663253 23.21840065 -8.08290395 15.83652178 -4.5925293 8.45288086 C-3.91444214 7.02407593 -3.91444214 7.02407593 -3.22265625 5.56640625 C-2.81797119 4.70990479 -2.41328613 3.85340332 -1.99633789 2.97094727 C-1 1 -1 1 0 0 Z M-48 108 C-47.67 108.66 -47.34 109.32 -47 110 C-46.67 109.34 -46.34 108.68 -46 108 C-46.66 108 -47.32 108 -48 108 Z " fill="#2F68CB" transform="translate(170,128)"/>
<path d="M0 0 C0.99 0.33 1.98 0.66 3 1 C2.31035156 1.73863281 1.62070313 2.47726563 0.91015625 3.23828125 C-3.70862036 8.21438442 -8.24227865 13.20682555 -12.5 18.5 C-16.61652611 23.61245985 -20.9922884 28.42576554 -25.44921875 33.23828125 C-29.6621597 37.79961242 -33.71432894 42.49022292 -37.7421875 47.21484375 C-43.32417895 53.75812808 -48.96454186 60.21881715 -54.7734375 66.5625 C-60.83014598 73.19300192 -66.60703193 80.06049412 -72.3984375 86.921875 C-75.24783135 90.29664516 -78.11917943 93.65201934 -81 97 C-81.33 96.01 -81.66 95.02 -82 94 C-80.55859375 91.25 -80.55859375 91.25 -78.4375 88 C-75.2446646 83.07494577 -72.360906 78.07019113 -69.57299805 72.90429688 C-67.0005544 68.15467875 -64.34452586 63.45267936 -61.6875 58.75 C-61.12353516 57.75145996 -60.55957031 56.75291992 -59.97851562 55.72412109 C-56.37748011 49.37109967 -52.69974579 43.07352731 -48.91113281 36.83081055 C-46.15361608 32.2842994 -43.5238567 27.67991518 -41 23 C-40.34 24.32 -39.68 25.64 -39 27 C-39.53625 27.598125 -40.0725 28.19625 -40.625 28.8125 C-43.31505186 32.42283276 -45.31052101 36.18677881 -47.41796875 40.15625 C-48.88785836 42.79842195 -50.47137079 45.26310307 -52.1875 47.75 C-54.67666881 51.37595457 -56.42859075 54.89687584 -58 59 C-57.34 59.33 -56.68 59.66 -56 60 C-55.67 58.68 -55.34 57.36 -55 56 C-53.68 56 -52.36 56 -51 56 C-48.86196946 55.92393164 -48.86196946 55.92393164 -47 55 C-46.29788106 53.34795544 -45.63028587 51.68076231 -45 50 C-44.01 49.67 -43.02 49.34 -42 49 C-41.566875 47.88625 -41.566875 47.88625 -41.125 46.75 C-39.46871158 42.70129497 -36.81734608 39.83078678 -32.8125 38 C-30.22068954 36.57003561 -29.86490367 34.73886163 -29 32 C-28.34 32 -27.68 32 -27 32 C-26.505 30.515 -26.505 30.515 -26 29 C-25.34 29 -24.68 29 -24 29 C-23.938125 28.21625 -23.87625 27.4325 -23.8125 26.625 C-23.544375 25.75875 -23.27625 24.8925 -23 24 C-20.5 22.875 -20.5 22.875 -18 22 C-17.505 20.515 -17.505 20.515 -17 19 C-16.34 19 -15.68 19 -15 19 C-14.731875 18.443125 -14.46375 17.88625 -14.1875 17.3125 C-13.5996875 16.1678125 -13.5996875 16.1678125 -13 15 C-12.54625 14.113125 -12.0925 13.22625 -11.625 12.3125 C-10 10 -10 10 -7.8125 9.1875 C-7.214375 9.125625 -6.61625 9.06375 -6 9 C-5.9071875 8.1646875 -5.9071875 8.1646875 -5.8125 7.3125 C-4.66626128 4.05012827 -2.50609803 2.31332126 0 0 Z " fill="#2C58A8" transform="translate(123,160)"/>
<path d="M0 0 C3.78630702 0.75567052 5.4041044 2.12597273 8 5 C7.67 5.66 7.34 6.32 7 7 C4.53199953 5.84826645 2.95216435 4.95216435 1 3 C-2.3 6.63 -5.6 10.26 -9 14 C-8.01 15.485 -8.01 15.485 -7 17 C-7.9075 17.7425 -8.815 18.485 -9.75 19.25 C-12.3069423 21.37674584 -14.69110193 23.60229816 -17 26 C-17.33 25.67 -17.66 25.34 -18 25 C-18.20625 25.886875 -18.4125 26.77375 -18.625 27.6875 C-20.38304358 31.92278682 -22.35373333 33.30493333 -26 36 C-26.33 35.34 -26.66 34.68 -27 34 C-27.5775 34.886875 -28.155 35.77375 -28.75 36.6875 C-32.05613923 41.62930812 -35.80022769 45.80022769 -40 50 C-44.56698445 54.7492992 -48.52857607 59.06357204 -50.91796875 65.2734375 C-52.44284746 67.70663746 -54.54293329 68.54145097 -57 70 C-58.68194312 71.67383085 -60.30445894 73.40872426 -61.875 75.1875 C-62.74769531 76.17105469 -63.62039062 77.15460938 -64.51953125 78.16796875 C-65.33808594 79.10253906 -66.15664062 80.03710938 -67 81 C-67.62261719 81.69738281 -68.24523437 82.39476562 -68.88671875 83.11328125 C-70.61344247 85.05735481 -72.30993437 87.02397967 -74 89 C-74.79019531 89.91136719 -75.58039063 90.82273437 -76.39453125 91.76171875 C-77.21308594 92.72722656 -78.03164062 93.69273437 -78.875 94.6875 C-79.63554688 95.57824219 -80.39609375 96.46898437 -81.1796875 97.38671875 C-83.06125369 100.08793717 -83.37708441 101.84246233 -84 105 C-85.83075316 106.1187936 -87.66795513 107.22831367 -89.53515625 108.28515625 C-92.72756037 110.50617908 -95.2052633 113.13064864 -97.8125 116 C-98.28026855 116.51054932 -98.74803711 117.02109863 -99.22998047 117.54711914 C-101.8898649 120.52832222 -103.97295961 123.57191698 -106 127 C-106.804375 127.639375 -107.60875 128.27875 -108.4375 128.9375 C-111.12861611 130.88530154 -111.12861611 130.88530154 -112.80078125 133.76171875 C-115.15975795 137.23523861 -117.74549525 139.97301116 -120.75 142.875 C-121.25660156 143.37257812 -121.76320313 143.87015625 -122.28515625 144.3828125 C-123.51885307 145.59323202 -124.75877784 146.79729853 -126 148 C-126 143.83953491 -123.74394897 141.97682857 -121.125 139 C-120.62758301 138.42330566 -120.13016602 137.84661133 -119.61767578 137.25244141 C-115.62640069 132.64848723 -111.51359592 128.1578748 -107.390625 123.671875 C-105.04616278 121.0515937 -102.82697433 118.36558676 -100.625 115.625 C-96.24055753 110.19108991 -91.54499937 105.10173982 -86.78515625 100 C-84.02333659 97.0378076 -81.34697566 94.0097866 -78.69921875 90.9453125 C-76.70593572 88.6633471 -74.66506973 86.42771426 -72.625 84.1875 C-69.5680198 80.80114819 -66.62156544 77.35725295 -63.75 73.8125 C-56.35530269 64.68850175 -48.63567262 55.83266622 -40.6875 47.1875 C-37.67452446 43.90325979 -34.81247406 40.56955194 -32.0625 37.0625 C-28.14567831 32.07529181 -23.90045743 27.45194965 -19.59375 22.8046875 C-12.78268113 15.43970641 -6.39720136 7.72297951 0 0 Z " fill="#0C173A" transform="translate(169,110)"/>
<path d="M0 0 C0.99 0.33 1.98 0.66 3 1 C2.34 1.33 1.68 1.66 1 2 C1.24556641 3.17949219 1.24556641 3.17949219 1.49609375 4.3828125 C2.12655771 8.90846849 2.10715524 13.31329568 2.0625 17.875 C2.05798828 18.75414062 2.05347656 19.63328125 2.04882812 20.5390625 C2.03712337 22.69273803 2.01919069 24.84637817 2 27 C3.485 27.495 3.485 27.495 5 28 C5 28.99 5 29.98 5 31 C7.31 31.66 9.62 32.32 12 33 C12 33.66 12 34.32 12 35 C12.66 35 13.32 35 14 35 C14.33 35.99 14.66 36.98 15 38 C17.66137199 40.38122757 19.5967577 41.8655859 23 43 C22.67 43.99 22.34 44.98 22 46 C18.22340828 43.88915498 15.17026029 41.4999443 12 38.5625 C10.34238988 37.03180065 8.6757627 35.51080481 7 34 C5.7315625 32.83791016 5.7315625 32.83791016 4.4375 31.65234375 C2.21934587 29.83176132 2.21934587 29.83176132 0.03515625 29.9375 C-2.93292809 31.48705651 -5.18100287 33.69000189 -7.5625 36 C-12.24863637 40.42197744 -17.06468021 44.57390871 -22.08203125 48.62109375 C-29.62344727 54.76931645 -36.98974379 61.14096935 -44.1875 67.6875 C-58.23909113 80.41303038 -58.23909113 80.41303038 -63 82 C-60.37023593 70.69201451 -54.21103764 60.29033557 -49 50 C-48.20735491 48.41715626 -47.41555302 46.83388967 -46.625 45.25 C-46.08875 44.1775 -45.5525 43.105 -45 42 C-44.67 42 -44.34 42 -44 42 C-43.6011526 47.01513676 -44.51849258 49.46428629 -47.375 53.5625 C-49.72649405 56.97361791 -51.60057009 60.09149121 -53 64 C-52.01 63.01 -51.02 62.02 -50 61 C-49.34 61.33 -48.68 61.66 -48 62 C-48.33 63.32 -48.66 64.64 -49 66 C-46.8942838 66.22560516 -46.8942838 66.22560516 -45.44921875 64.57421875 C-44.86785156 63.95160156 -44.28648438 63.32898438 -43.6875 62.6875 C-41.58097011 60.50230302 -39.95484418 58.97374662 -37.3125 57.4375 C-34.75177221 56.06920414 -34.75177221 56.06920414 -33.0625 53.0625 C-30.74232928 49.61739801 -28.52692119 48.13084822 -25 46 C-24.2575 45.4225 -23.515 44.845 -22.75 44.25 C-21 43 -21 43 -19 43 C-19 42.34 -19 41.68 -19 41 C-15.53846154 38 -15.53846154 38 -13 38 C-12.34 36.35 -11.68 34.7 -11 33 C-10.01 33 -9.02 33 -8 33 C-8 32.34 -8 31.68 -8 31 C-5.36107824 29.21694476 -3.02821137 28.00940379 0 27 C0 18.09 0 9.18 0 0 Z M-48 59 C-47.01 59.495 -47.01 59.495 -46 60 C-46.99 60.495 -46.99 60.495 -48 61 C-48 60.34 -48 59.68 -48 59 Z " fill="#2D51A2" transform="translate(170,177)"/>
<path d="M0 0 C1.32 0.33 2.64 0.66 4 1 C4 1.66 4 2.32 4 3 C3.55487061 3.43803955 3.10974121 3.8760791 2.65112305 4.32739258 C0.68489184 6.31920834 -0.23675921 8.22669292 -1.41796875 10.76171875 C-1.86358154 11.70781006 -2.30919434 12.65390137 -2.76831055 13.62866211 C-3.23664307 14.63807861 -3.70497559 15.64749512 -4.1875 16.6875 C-5.17599489 18.78697115 -6.16558289 20.88592797 -7.15625 22.984375 C-7.6409375 24.01369141 -8.125625 25.04300781 -8.625 26.10351562 C-10.43036849 29.9065859 -12.29357393 33.67790112 -14.1875 37.4375 C-14.50549561 38.06938232 -14.82349121 38.70126465 -15.15112305 39.35229492 C-15.78294875 40.60608667 -16.41534634 41.8595904 -17.04833984 43.11279297 C-19.04563155 47.07355871 -21.02327946 51.04418651 -23.00512695 55.01269531 C-24.64070325 58.28623736 -26.28010463 61.55770972 -27.9296875 64.82421875 C-32.21303091 73.32185419 -36.34444295 81.88389453 -40.42041016 90.48291016 C-44.01601088 98.06030058 -47.73093929 105.57020058 -51.5546875 113.03515625 C-57.22233446 124.14986437 -57.22233446 124.14986437 -61 136 C-61.66 136 -62.32 136 -63 136 C-60.81395349 125.53488372 -60.81395349 125.53488372 -59 121 C-58.01 120.505 -58.01 120.505 -57 120 C-55.4413321 116.05748707 -54.59835078 112.18845544 -54 108 C-52.515 107.505 -52.515 107.505 -51 107 C-50.04764395 105.00207384 -50.04764395 105.00207384 -49.4375 102.625 C-48.54987314 99.54588761 -47.81775218 97.72662828 -46 95 C-45.36707617 92.88719655 -45.36707617 92.88719655 -45 91 C-44.34 91 -43.68 91 -43 91 C-42.71125 90.2575 -42.4225 89.515 -42.125 88.75 C-41 86 -41 86 -39.9375 84 C-38.87396205 81.94939748 -38.87396205 81.94939748 -38.5 79.3125 C-38.335 78.549375 -38.17 77.78625 -38 77 C-37.01 76.505 -37.01 76.505 -36 76 C-35.7525 75.195625 -35.505 74.39125 -35.25 73.5625 C-34.14198192 70.40464848 -32.9517551 68.17705222 -31.1875 65.375 C-28.26864744 60.66212099 -26.14377052 55.84426541 -24.1015625 50.69921875 C-23 48 -23 48 -21.1875 44.5625 C-19.91091102 41.80775536 -19.73536867 39.99915512 -20 37 C-19.38125 36.938125 -18.7625 36.87625 -18.125 36.8125 C-15.78707755 36.19631581 -15.78707755 36.19631581 -14.9375 33.8125 C-14.628125 32.884375 -14.31875 31.95625 -14 31 C-13.505 30.030625 -13.01 29.06125 -12.5 28.0625 C-10.95729111 25.09731173 -10.95729111 25.09731173 -10.08984375 22.1796875 C-8.98645693 18.96048724 -7.62286169 16.08396373 -6.0625 13.0625 C-3.87115723 8.76018155 -1.8276469 4.46758131 0 0 Z " fill="#143062" transform="translate(168,125)"/>
<path d="M0 0 C0.99 0 1.98 0 3 0 C1.62699382 3.65709179 -0.02306228 6.95590808 -1.984375 10.33203125 C-2.5825 11.36521484 -3.180625 12.39839844 -3.796875 13.46289062 C-4.44140625 14.56826172 -5.0859375 15.67363281 -5.75 16.8125 C-6.42735613 17.97965943 -7.10443512 19.14697975 -7.78125 20.31445312 C-9.84936114 23.87910806 -11.92392266 27.43998022 -14 31 C-14.60521484 32.03817871 -15.21042969 33.07635742 -15.83398438 34.14599609 C-18.13034985 38.08363286 -20.42772347 42.02067602 -22.72753906 45.95629883 C-27.01061855 53.28954107 -31.26118408 60.64109639 -35.5 68 C-40.96342764 77.48460658 -46.45957981 86.94941263 -51.98095703 96.40039062 C-57.34615334 105.58553269 -62.67804138 114.78975324 -68 124 C-69 121 -69 121 -67.890625 118.4765625 C-67.34921875 117.53554687 -66.8078125 116.59453125 -66.25 115.625 C-65.71890625 114.68914062 -65.1878125 113.75328125 -64.640625 112.7890625 C-63.55348228 110.94091988 -62.44812445 109.10336303 -61.32421875 107.27734375 C-59.91446859 105.1257274 -59.91446859 105.1257274 -59.5625 102.9375 C-59 101 -59 101 -57.0625 99.1875 C-54.40373796 96.36760087 -53.86011008 93.72714368 -53 90 C-52.01 90 -51.02 90 -50 90 C-49.731875 88.865625 -49.46375 87.73125 -49.1875 86.5625 C-48.795625 85.386875 -48.40375 84.21125 -48 83 C-46.515 82.505 -46.515 82.505 -45 82 C-44.36856864 80.23167185 -44.36856864 80.23167185 -44 78 C-42.86313355 74.02096742 -41.91852614 71.84383227 -39 69 C-37.44666131 66.6024555 -35.95569694 64.20498725 -34.5 61.75 C-34.10941406 61.10675781 -33.71882813 60.46351562 -33.31640625 59.80078125 C-30.8343597 55.64732289 -28.8131219 51.48631445 -27 47 C-26.34 47 -25.68 47 -25 47 C-24.9175 45.9275 -24.835 44.855 -24.75 43.75 C-23.89852273 39.49261365 -23.00964485 38.90040184 -20 36 C-18.88274279 34.39083564 -17.81963463 32.74278374 -16.8125 31.0625 C-16.04873047 29.81146484 -16.04873047 29.81146484 -15.26953125 28.53515625 C-13.87680439 26.06958717 -13.87680439 26.06958717 -13.57421875 23.37109375 C-12.82515273 20.27801159 -11.54381403 19.81100889 -9 18 C-7.341546 15.53816032 -7.341546 15.53816032 -5.9375 12.75 C-5.17373047 11.29400391 -5.17373047 11.29400391 -4.39453125 9.80859375 C-2.79159681 6.58027482 -1.33834756 3.3458689 0 0 Z " fill="#182F5C" transform="translate(162,40)"/>
<path d="M0 0 C3.39415616 1.45463835 5.48024162 3.32275672 8 6 C8.680625 6.639375 9.36125 7.27875 10.0625 7.9375 C12 10 12 10 13.5625 12.75 C14.036875 13.4925 14.51125 14.235 15 15 C15.99 15 16.98 15 18 15 C18.99 15 19.98 15 21 15 C22.38671875 16.390625 22.38671875 16.390625 23.6875 18.25 C24.12449219 18.85328125 24.56148438 19.4565625 25.01171875 20.078125 C26 22 26 22 26 26 C26.61875 26.103125 27.2375 26.20625 27.875 26.3125 C30 27 30 27 32 30 C32 30.99 32 31.98 32 33 C33.98 32.505 33.98 32.505 36 32 C36.37511719 32.7734375 36.75023437 33.546875 37.13671875 34.34375 C39.54683946 39.24898308 41.93414046 44.05246947 44.9375 48.625 C45.618125 49.73875 46.29875 50.8525 47 52 C46.505 52.99 46.505 52.99 46 54 C41.0106027 48.61478412 36.11060535 43.21583096 31.5 37.5 C28.44651321 33.71539666 25.29331699 30.07792463 22 26.5 C17.87775349 22.02040705 14.00310893 17.39489985 10.18359375 12.65625 C7.37054567 9.23429527 4.41957576 5.95088027 1.43359375 2.6796875 C0 1 0 1 0 0 Z " fill="#315DB4" transform="translate(255,205)"/>
<path d="M0 0 C0.66 1.32 1.32 2.64 2 4 C1.46375 4.598125 0.9275 5.19625 0.375 5.8125 C-2.31505186 9.42283276 -4.31052101 13.18677881 -6.41796875 17.15625 C-7.88785836 19.79842195 -9.47137079 22.26310307 -11.1875 24.75 C-14.02952527 28.90887991 -16.34873992 33.02281104 -17.4375 38 C-18.65970847 42.34563012 -21.26285252 46.0841501 -24.0625 49.5625 C-26.11576133 51.97344409 -26.11576133 51.97344409 -27.5 55 C-29.03298746 58.06597492 -30.69314094 60.46989652 -33 63 C-33.66 63 -34.32 63 -35 63 C-34.814375 64.3303125 -34.814375 64.3303125 -34.625 65.6875 C-35.04028076 69.35581339 -35.30900395 69.67040465 -38 71.875 C-38.99 72.57625 -39.98 73.2775 -41 74 C-39.42710881 66.17170248 -34.09953155 59.10620964 -29.9375 52.4375 C-27.68071508 48.81052424 -25.5358702 45.22577125 -23.6875 41.375 C-21.21682078 36.25716447 -18.40316888 31.35614022 -15.5625 26.4375 C-15.10770264 25.64585449 -14.65290527 24.85420898 -14.18432617 24.03857422 C-11.40896223 19.26056947 -8.4785274 14.63674772 -5.34887695 10.08251953 C-3.25945124 6.85667313 -1.64139734 3.47218669 0 0 Z " fill="#264999" transform="translate(82,183)"/>
<path d="M0 0 C1.82421875 0.8203125 1.82421875 0.8203125 2.82421875 2.8203125 C1.74140625 2.6346875 1.74140625 2.6346875 0.63671875 2.4453125 C-2.48326953 2.54975254 -2.48326953 2.54975254 -4.67578125 5.6328125 C-5.08441406 6.18453125 -5.49304688 6.73625 -5.9140625 7.3046875 C-7.17578125 8.8203125 -7.17578125 8.8203125 -9.86328125 10.3828125 C-12.40078132 11.62503411 -12.40078132 11.62503411 -13.05078125 14.3203125 C-14.17578125 16.8203125 -14.17578125 16.8203125 -17.11328125 18.0078125 C-17.72816406 18.22824219 -18.34304687 18.44867188 -18.9765625 18.67578125 C-23.08612611 20.81450618 -26.21322554 24.25464282 -29.52734375 27.4453125 C-31.97646032 29.64157043 -34.33968062 31.1853839 -37.17578125 32.8203125 C-38.88358098 34.44480493 -40.55128882 36.11251277 -42.17578125 37.8203125 C-45.05500652 40.79551195 -48.08570722 43.49490481 -51.23828125 46.171875 C-53.31287838 47.93695562 -55.37212545 49.71841388 -57.42578125 51.5078125 C-58.0703125 52.06855469 -58.71484375 52.62929688 -59.37890625 53.20703125 C-61.03630057 54.69508311 -62.61804832 56.22892485 -64.17578125 57.8203125 C-64.83578125 57.4903125 -65.49578125 57.1603125 -66.17578125 56.8203125 C-61.6687312 51.17496311 -56.71261704 46.66107538 -51.06640625 42.171875 C-48.16919455 39.81495413 -45.42008284 37.35291082 -42.67578125 34.8203125 C-38.31025053 30.806244 -33.81078903 27.03094199 -29.19921875 23.3046875 C-25.59871048 20.34613031 -22.07063474 17.31150077 -18.55078125 14.2578125 C-17.58869751 13.42648804 -17.58869751 13.42648804 -16.60717773 12.57836914 C-12.29560518 8.83856429 -8.09660092 4.99957269 -4.0078125 1.015625 C-2.17578125 -0.1796875 -2.17578125 -0.1796875 0 0 Z " fill="#0B1433" transform="translate(171.17578125,206.1796875)"/>
<path d="M0 0 C0.33 0 0.66 0 1 0 C1 14.85 1 29.7 1 45 C0.01 45 -0.98 45 -2 45 C-1.83701416 43.9989624 -1.67402832 42.9979248 -1.50610352 41.96655273 C-1.01273662 38.09982239 -0.88618051 34.43049717 -0.90234375 30.53515625 C-0.90446617 29.51789711 -0.90446617 29.51789711 -0.90663147 28.48008728 C-0.91217255 26.34084422 -0.92471347 24.20171075 -0.9375 22.0625 C-0.94252264 20.60091298 -0.9470842 19.13932431 -0.95117188 17.67773438 C-0.96212255 14.11845474 -0.97934555 10.55923809 -1 7 C-3.12758635 10.10019725 -4.95219669 12.88266461 -6.375 16.375 C-7.68729887 19.30243594 -8.68817369 21.01646711 -10.625 23.4375 C-13.78717659 27.47584643 -16.29837724 31.79250937 -18.8125 36.25 C-19.20969238 36.94794678 -19.60688477 37.64589355 -20.01611328 38.36499023 C-20.38849121 39.03344971 -20.76086914 39.70190918 -21.14453125 40.390625 C-21.47815674 40.98907227 -21.81178223 41.58751953 -22.15551758 42.20410156 C-23.0777139 44.0032811 -23.0777139 44.0032811 -23.4909668 46.10058594 C-24.47290064 49.76458849 -28.35945733 52.35945733 -31 55 C-29.66186686 50.53091948 -27.88214624 46.78368168 -25.5078125 42.7734375 C-25.1653952 42.19161209 -24.82297791 41.60978668 -24.47018433 41.0103302 C-23.36072135 39.12851187 -22.24315327 37.25166538 -21.125 35.375 C-20.35768228 34.07876306 -19.59075784 32.78229324 -18.82421875 31.4855957 C-16.91428681 28.25814903 -14.99719891 25.0350167 -13.07824707 21.81292725 C-11.4607691 19.09335585 -9.85208117 16.36859713 -8.2421875 13.64453125 C-7.16212238 11.82512647 -6.08144075 10.00608745 -5 8.1875 C-4.50258301 7.34687012 -4.00516602 6.50624023 -3.49267578 5.64013672 C-2.35686337 3.74279068 -1.18312636 1.86820872 0 0 Z " fill="#417DD2" transform="translate(170,32)"/>
<path d="M0 0 C0.33 0 0.66 0 1 0 C1.3988474 5.01513676 0.48150742 7.46428629 -2.375 11.5625 C-4.72649405 14.97361791 -6.60057009 18.09149121 -8 22 C-7.01 21.01 -6.02 20.02 -5 19 C-4.34 19.33 -3.68 19.66 -3 20 C-3.33 21.98 -3.66 23.96 -4 26 C-4.66 26 -5.32 26 -6 26 C-5.979375 26.825 -5.95875 27.65 -5.9375 28.5 C-7.55802082 33.83818624 -11.55481349 36.78641562 -16 40 C-16.66 40 -17.32 40 -18 40 C-15.37023593 28.69201451 -9.21103764 18.29033557 -4 8 C-3.20735491 6.41715626 -2.41555302 4.83388967 -1.625 3.25 C-1.08875 2.1775 -0.5525 1.105 0 0 Z M-3 17 C-2.01 17.495 -2.01 17.495 -1 18 C-1.99 18.495 -1.99 18.495 -3 19 C-3 18.34 -3 17.68 -3 17 Z " fill="#2A58B1" transform="translate(125,219)"/>
<path d="M0 0 C0.92430773 2.49563087 1.07986704 3.74260241 0.28125 6.31640625 C-1.55432837 10.16104753 -3.47463756 13.95756374 -5.43359375 17.74023438 C-7.3097171 21.42403881 -8.70890469 25.08060354 -10 29 C-10.9793879 30.02019573 -11.97895449 31.02149805 -13 32 C-13.72455635 33.64232772 -14.37774395 35.31624835 -15 37 C-17.96740699 44.3099538 -21.36110892 52.36110892 -27 58 C-26.48070433 52.82302163 -24.5833141 48.95474951 -22.0625 44.5 C-18.33818392 37.71561554 -15.02269759 30.81946874 -11.875 23.75 C-8.24879981 15.62141418 -4.40747307 7.7349693 0 0 Z " fill="#4583D7" transform="translate(170,128)"/>
<path d="M0 0 C2.86099696 2.53254414 4.46638382 5.35957882 6.3125 8.6875 C7.01431646 9.93953647 7.71755867 11.19077434 8.421875 12.44140625 C8.82083984 13.15055176 9.21980469 13.85969727 9.63085938 14.59033203 C12.39793096 19.46033855 15.23561041 24.28956055 18.0625 29.125 C18.92838745 30.60746216 18.92838745 30.60746216 19.81176758 32.11987305 C20.38048584 33.09351807 20.9492041 34.06716309 21.53515625 35.0703125 C22.37844482 36.51905762 22.37844482 36.51905762 23.23876953 37.99707031 C24.47692951 40.10815539 25.72920608 42.21099337 26.99169922 44.30761719 C27.63252441 45.37915039 28.27334961 46.45068359 28.93359375 47.5546875 C29.52068115 48.52647949 30.10776855 49.49827148 30.71264648 50.49951172 C32 53 32 53 32 56 C31.34 56 30.68 56 30 56 C28.99515796 54.04414675 27.99626195 52.08523763 27 50.125 C26.443125 49.03445312 25.88625 47.94390625 25.3125 46.8203125 C24 44 24 44 24 42 C23.34 42 22.68 42 22 42 C21.01515892 40.25318707 20.03733813 38.5024149 19.0625 36.75 C18.51722656 35.77546875 17.97195312 34.8009375 17.41015625 33.796875 C16.23389165 31.46389591 15.47898309 29.54649238 15 27 C13.68 26.67 12.36 26.34 11 26 C10.67 23.36 10.34 20.72 10 18 C9.34 18 8.68 18 8 18 C7.16180842 16.37750059 6.3295884 14.75191503 5.5 13.125 C5.0359375 12.22007812 4.571875 11.31515625 4.09375 10.3828125 C3 8 3 8 3 6 C2.01 6 1.02 6 0 6 C0 4.02 0 2.04 0 0 Z " fill="#3564AF" transform="translate(220,117)"/>
<path d="M0 0 C0.33 0 0.66 0 1 0 C1.02578125 1.12019531 1.0515625 2.24039063 1.078125 3.39453125 C1.13440635 4.86722646 1.19175368 6.3398812 1.25 7.8125 C1.26417969 8.55048828 1.27835938 9.28847656 1.29296875 10.04882812 C1.43268361 14.4715175 1.43268361 14.4715175 4 17.875 C4.66 18.24625 5.32 18.6175 6 19 C6.75 21.1875 6.75 21.1875 7 23 C6.2575 22.319375 5.515 21.63875 4.75 20.9375 C2.29926204 18.79440302 2.29926204 18.79440302 0.0859375 19.07421875 C-2.87640555 20.38896651 -4.15813045 22.31298911 -6.125 24.875 C-11.99050905 32.31110817 -18.25181133 39.3444638 -25 46 C-24.67 44.35 -24.34 42.7 -24 41 C-22.515 40.505 -22.515 40.505 -21 40 C-20.30341637 38.34561387 -19.63903117 36.67745682 -19 35 C-17.5625 33.375 -17.5625 33.375 -16 32 C-15.484375 31.443125 -14.96875 30.88625 -14.4375 30.3125 C-13 29 -13 29 -11 29 C-10.62875 27.9171875 -10.62875 27.9171875 -10.25 26.8125 C-8.87122087 23.71024696 -7.29054328 21.49877449 -5 19 C-4.01 18.67 -3.02 18.34 -2 18 C-0.57457799 14.48339 -0.68025824 10.49541288 -0.4375 6.75 C-0.35371094 5.48671875 -0.26992187 4.2234375 -0.18359375 2.921875 C-0.09271484 1.47554688 -0.09271484 1.47554688 0 0 Z " fill="#244A9C" transform="translate(170,92)"/>
<path d="M0 0 C0.495 0.99 0.495 0.99 1 2 C0.04711914 4.11621094 0.04711914 4.11621094 -1.46484375 6.734375 C-2.28782959 8.17345215 -2.28782959 8.17345215 -3.12744141 9.64160156 C-3.72476074 10.66737305 -4.32208008 11.69314453 -4.9375 12.75 C-5.53997559 13.79897461 -6.14245117 14.84794922 -6.76318359 15.92871094 C-7.96466998 18.01945852 -9.16936482 20.10836595 -10.37744141 22.1953125 C-12.31075975 25.53716642 -14.2185633 28.89275298 -16.125 32.25 C-17.055301 33.86860472 -17.98561994 35.48719923 -18.91650391 37.10546875 C-20.22798768 39.39864453 -21.52532569 41.6996703 -22.82421875 44 C-23.82007491 45.75013521 -24.81616747 47.50013593 -25.8125 49.25 C-26.28123535 50.08563477 -26.7499707 50.92126953 -27.23291016 51.78222656 C-27.67812012 52.56049805 -28.12333008 53.33876953 -28.58203125 54.140625 C-28.97624268 54.83704102 -29.3704541 55.53345703 -29.77661133 56.25097656 C-31 58 -31 58 -34 60 C-33.37466738 55.37253858 -33.37466738 55.37253858 -31.625 53.6328125 C-29.66011777 51.65848372 -28.60379426 49.65538904 -27.3125 47.1875 C-24.5605802 42.00782138 -21.68041994 36.92016074 -18.71606445 31.86010742 C-16.85882568 28.65139374 -15.27783094 25.48143736 -14 22 C-13.34 22 -12.68 22 -12 22 C-11.01 18.535 -11.01 18.535 -10 15 C-9.34 15 -8.68 15 -8 15 C-7.73445313 14.28457031 -7.46890625 13.56914062 -7.1953125 12.83203125 C-5.97085901 9.93095681 -4.52016937 7.36984136 -2.875 4.6875 C-2.33617188 3.80449219 -1.79734375 2.92148438 -1.2421875 2.01171875 C-0.83226562 1.34785156 -0.42234375 0.68398437 0 0 Z " fill="#182345" transform="translate(72,198)"/>
<path d="M0 0 C0.99 0.33 1.98 0.66 3 1 C2.01 1.495 2.01 1.495 1 2 C1.16371094 2.78632813 1.32742187 3.57265625 1.49609375 4.3828125 C2.12655771 8.90846849 2.10715524 13.31329568 2.0625 17.875 C2.05798828 18.75414062 2.05347656 19.63328125 2.04882812 20.5390625 C2.03712337 22.69273803 2.01919069 24.84637817 2 27 C2.99 27.33 3.98 27.66 5 28 C5 28.99 5 29.98 5 31 C7.31 31.66 9.62 32.32 12 33 C12 33.66 12 34.32 12 35 C12.66 35 13.32 35 14 35 C14.33 35.99 14.66 36.98 15 38 C17.66137199 40.38122757 19.5967577 41.8655859 23 43 C22.67 43.99 22.34 44.98 22 46 C18.25497518 43.90758399 15.25304903 41.55317369 12.125 38.625 C8.90487167 35.48450884 8.90487167 35.48450884 5.13549805 33.11743164 C2.83773505 31.94891487 1.55687446 31.07583261 0 29 C-0.88507808 24.05844324 -0.65859603 19.17974115 -0.4375 14.1875 C-0.40236195 12.81322999 -0.37042724 11.43887411 -0.34179688 10.06445312 C-0.25934421 6.70745188 -0.1442899 3.35481936 0 0 Z " fill="#1C3D8D" transform="translate(170,177)"/>
<path d="M0 0 C4.08391767 3.18744794 7.51656966 6.5270341 10.8515625 10.48828125 C12.58022646 12.50924657 14.34367402 14.46628107 16.1484375 16.41796875 C17.26587596 17.65341889 18.38306208 18.88909732 19.5 20.125 C20.05316895 20.71079834 20.60633789 21.29659668 21.17626953 21.90014648 C25.0348742 26.23451137 25.0348742 26.23451137 24.84375 30.4296875 C24.5653125 31.27789062 24.286875 32.12609375 24 33 C23.01 32.34 22.02 31.68 21 31 C20.8125 27.875 20.8125 27.875 21 25 C20.01 25 19.02 25 18 25 C18 23.68 18 22.36 18 21 C17.01 21 16.02 21 15 21 C15 21.66 15 22.32 15 23 C14.01 23 13.02 23 12 23 C12 20.03 12 17.06 12 14 C11.34 14 10.68 14 10 14 C5 8.52380952 5 8.52380952 5 6 C4.34 6 3.68 6 3 6 C3 5.34 3 4.68 3 4 C2.01 4 1.02 4 0 4 C0 2.68 0 1.36 0 0 Z " fill="#0C1B39" transform="translate(217,163)"/>
<path d="M0 0 C3.04355645 3.77480053 5.36526811 7.91974724 7.75 12.125 C8.17410156 12.85332031 8.59820312 13.58164063 9.03515625 14.33203125 C10.08747764 16.18644777 11.05149458 18.09039837 12 20 C11.67 20.66 11.34 21.32 11 22 C5.26582134 15.72355495 -0.43668753 9.429126 -6 3 C-4 2 -4 2 -1 2 C-0.67 1.34 -0.34 0.68 0 0 Z " fill="#3B599C" transform="translate(290,237)"/>
<path d="M0 0 C0.33 0 0.66 0 1 0 C1.40998813 5.19581109 0.18623584 8.25223502 -2.25 12.8125 C-2.89587132 14.04878 -3.54040519 15.28575965 -4.18359375 16.5234375 C-4.78300781 17.67070312 -5.38242188 18.81796875 -6 20 C-8.53438725 25.25365381 -10.50501578 30.36505947 -12 36 C-12.33 36.66 -12.66 37.32 -13 38 C-13.66 38 -14.32 38 -15 38 C-12.81395349 27.53488372 -12.81395349 27.53488372 -11 23 C-10.34 22.67 -9.68 22.34 -9 22 C-7.4413321 18.05748707 -6.59835078 14.18845544 -6 10 C-5.01 9.67 -4.02 9.34 -3 9 C-1.97718482 6.90280128 -1.97718482 6.90280128 -1.3125 4.4375 C-1.06113281 3.61121094 -0.80976562 2.78492188 -0.55078125 1.93359375 C-0.36902344 1.29550781 -0.18726562 0.65742188 0 0 Z " fill="#172448" transform="translate(120,223)"/>
<path d="M0 0 C0.33 0 0.66 0 1 0 C1.3988474 5.01513676 0.48150742 7.46428629 -2.375 11.5625 C-4.72649405 14.97361791 -6.60057009 18.09149121 -8 22 C-7.34 22.33 -6.68 22.66 -6 23 C-6.75827092 24.17487036 -7.53207755 25.33972592 -8.3125 26.5 C-8.74175781 27.1496875 -9.17101562 27.799375 -9.61328125 28.46875 C-10.07089844 28.9740625 -10.52851562 29.479375 -11 30 C-11.99 30 -12.98 30 -14 30 C-12.51308177 25.07937368 -10.45888782 20.67998551 -8.125 16.125 C-7.78597656 15.45597656 -7.44695312 14.78695312 -7.09765625 14.09765625 C-6.41584885 12.75218842 -5.7325931 11.40745351 -5.04785156 10.06347656 C-3.34861701 6.71726724 -1.67535319 3.35821917 0 0 Z " fill="#26479B" transform="translate(125,219)"/>
<path d="M0 0 C3.75966883 1.25322294 4.13149973 2.4394228 6.0625 5.8125 C6.82240234 7.12154297 6.82240234 7.12154297 7.59765625 8.45703125 C8.45765373 10.01652528 9.28618139 11.5945392 10.05859375 13.19921875 C10.9789218 15.17828772 10.9789218 15.17828772 13 17 C13 17.99 13 18.98 13 20 C13.66 20.33 14.32 20.66 15 21 C15.33 21.99 15.66 22.98 16 24 C16.66 24.33 17.32 24.66 18 25 C19.03515625 27.1796875 19.03515625 27.1796875 20.0625 29.875 C20.57490234 31.20144531 20.57490234 31.20144531 21.09765625 32.5546875 C21.7632722 34.35847791 22.3919947 36.1759841 23 38 C22.34 38 21.68 38 21 38 C20.45472656 36.94683594 19.90945313 35.89367187 19.34765625 34.80859375 C15.13081872 26.72302004 10.79279911 18.76515757 6.00805664 10.99975586 C3.80659135 7.41561055 1.8280157 3.78824638 0 0 Z " fill="#1C2E52" transform="translate(256,178)"/>
<path d="M0 0 C3.78094432 1.26031477 4.74143725 2.88289348 7.1875 6 C11.29885363 11.15604185 15.57264379 16.11422544 20 21 C19.67 21.99 19.34 22.98 19 24 C17 23 17 23 16 20 C13.75 17.25 13.75 17.25 11 15 C9.68 15 8.36 15 7 15 C7 14.34 7 13.68 7 13 C7.66 13 8.32 13 9 13 C9 12.34 9 11.68 9 11 C8.01 11.33 7.02 11.66 6 12 C6 10.68 6 9.36 6 8 C5.01 7.67 4.02 7.34 3 7 C3 6.01 3 5.02 3 4 C2.01 4 1.02 4 0 4 C0 2.68 0 1.36 0 0 Z " fill="#101C35" transform="translate(269,223)"/>
<path d="M0 0 C0.66 0 1.32 0 2 0 C0.67441171 2.89853515 -0.79488344 5.08533658 -2.9375 7.4375 C-5.29089815 10.05404182 -7.59378126 12.69820778 -9.8359375 15.41015625 C-10.32715088 16.0019165 -10.81836426 16.59367676 -11.32446289 17.20336914 C-12.30975223 18.39299084 -13.29078208 19.58615439 -14.26733398 20.78295898 C-15.46829611 22.22577414 -16.72959665 23.61793599 -18 25 C-18.66 25 -19.32 25 -20 25 C-19.52353463 20.71181167 -16.94800383 18.94800383 -14 16 C-12.51972881 13.72265971 -11.2730969 11.40473858 -10 9 C-9.01 9.33 -8.02 9.66 -7 10 C-7 9.01 -7 8.02 -7 7 C-6.01 7 -5.02 7 -4 7 C-3.71125 6.401875 -3.4225 5.80375 -3.125 5.1875 C-2 3 -2 3 0 0 Z " fill="#345B9F" transform="translate(66,225)"/>
<path d="M0 0 C0.66 0 1.32 0 2 0 C5.46062722 6.2752707 8.84362439 12.56584971 12 19 C11.01 19.33 10.02 19.66 9 20 C8.566875 19.030625 8.13375 18.06125 7.6875 17.0625 C6.2985139 13.72268235 6.2985139 13.72268235 3 13 C1.9375 10.75 1.9375 10.75 1 8 C0.608125 7.13375 0.21625 6.2675 -0.1875 5.375 C-1 3 -1 3 0 0 Z " fill="#284EA0" transform="translate(278,218)"/>
<path d="M0 0 C0.99 0.33 1.98 0.66 3 1 C2.63237549 1.61931396 2.26475098 2.23862793 1.88598633 2.87670898 C0.19353634 5.72954417 -1.49699185 8.58351374 -3.1875 11.4375 C-4.0547168 12.89833008 -4.0547168 12.89833008 -4.93945312 14.38867188 C-8.05499652 19.65165195 -11.09708027 24.92967292 -13.95043945 30.34008789 C-15 32 -15 32 -17 33 C-16.3525226 29.53080009 -14.94987544 27.08757953 -13.0625 24.125 C-10.82222972 20.49329087 -9.09468617 17.15980744 -8 13 C-7.34 13 -6.68 13 -6 13 C-5.7525 12.34 -5.505 11.68 -5.25 11 C-3.68182955 7.23639093 -1.85494954 3.6288576 0 0 Z " fill="#17284F" transform="translate(90,165)"/>
<path d="M0 0 C0.78375 0.825 1.5675 1.65 2.375 2.5 C4.63721264 5.22988506 4.63721264 5.22988506 7 5 C7.66 8.63 8.32 12.26 9 16 C9.99 16.33 10.98 16.66 12 17 C13.0625 19.375 13.0625 19.375 14 22 C14.66 22.99 15.32 23.98 16 25 C16.66 24.67 17.32 24.34 18 24 C18.33 24.99 18.66 25.98 19 27 C17.68 27.33 16.36 27.66 15 28 C14.41992188 27.03320312 13.83984375 26.06640625 13.2421875 25.0703125 C12.67842407 24.13106934 12.67842407 24.13106934 12.10327148 23.17285156 C11.28160953 21.80292501 10.4608143 20.43247824 9.64086914 19.06152344 C7.80200847 15.98914357 5.95390956 12.92569663 4.06640625 9.8828125 C3.52886719 9.01398438 2.99132812 8.14515625 2.4375 7.25 C1.96183594 6.49203125 1.48617187 5.7340625 0.99609375 4.953125 C0 3 0 3 0 0 Z " fill="#1E335D" transform="translate(227,126)"/>
<path d="M0 0 C1 2 1 2 0.0625 5.5625 C-3.12467057 14.6772121 -7.67303173 23.38067921 -12 32 C-13.41687119 27.74938644 -12.19320039 25.28148375 -11 21 C-10.34 21 -9.68 21 -9 21 C-8.71125 20.2575 -8.4225 19.515 -8.125 18.75 C-7 16 -7 16 -5.9375 14 C-4.87396205 11.94939748 -4.87396205 11.94939748 -4.5 9.3125 C-4.335 8.549375 -4.17 7.78625 -4 7 C-3.34 6.67 -2.68 6.34 -2 6 C-1.27306096 4.02111039 -0.60183749 2.02045442 0 0 Z " fill="#152A56" transform="translate(134,195)"/>
<path d="M0 0 C0.33 0 0.66 0 1 0 C1 14.85 1 29.7 1 45 C0.01 45 -0.98 45 -2 45 C-1.84152588 44.01249756 -1.68305176 43.02499512 -1.51977539 42.00756836 C-0.94536178 37.97300714 -0.77973366 33.94931174 -0.68359375 29.87890625 C-0.6524221 28.76176491 -0.6524221 28.76176491 -0.62062073 27.62205505 C-0.5558179 25.26895375 -0.49656635 22.91575157 -0.4375 20.5625 C-0.3942487 18.95637024 -0.35063243 17.35025027 -0.30664062 15.74414062 C-0.20020878 11.82952751 -0.09875149 7.91481409 0 4 C-0.66 3.67 -1.32 3.34 -2 3 C-1.34 2.01 -0.68 1.02 0 0 Z " fill="#3C7AD0" transform="translate(170,32)"/>
<path d="M0 0 C0.66 1.32 1.32 2.64 2 4 C1.46375 4.598125 0.9275 5.19625 0.375 5.8125 C-1.74576126 8.65878484 -3.30070061 11.36597327 -4.9375 14.5 C-7.20119683 18.76819173 -9.33483438 21.87382932 -13 25 C-11.67713423 19.97311006 -9.30040812 15.98948146 -6.59765625 11.61328125 C-4.27309543 7.81100451 -2.13496324 3.91095036 0 0 Z " fill="#2E54A5" transform="translate(82,183)"/>
<path d="M0 0 C0.33 0 0.66 0 1 0 C1.34934248 2.93447681 1.51495218 5.14367502 -0.04296875 7.734375 C-1.375 9.375 -1.375 9.375 -4 12 C-4.66 12 -5.32 12 -6 12 C-5.87625 12.886875 -5.7525 13.77375 -5.625 14.6875 C-6.04028076 18.35581339 -6.30900395 18.67040465 -9 20.875 C-9.99 21.57625 -10.98 22.2775 -12 23 C-10.38390134 14.76559255 -4.56774736 6.91687457 0 0 Z " fill="#233F85" transform="translate(53,234)"/>
<path d="M0 0 C1.32 0.33 2.64 0.66 4 1 C4 3 4 3 2.62768555 4.37426758 C2.09054932 4.91075928 1.55341309 5.44725098 1 6 C-0.11368439 7.90714188 -0.11368439 7.90714188 -1.04296875 10.01171875 C-1.39423828 10.76904297 -1.74550781 11.52636719 -2.10742188 12.30664062 C-2.46384766 13.09232422 -2.82027344 13.87800781 -3.1875 14.6875 C-3.55552734 15.48478516 -3.92355469 16.28207031 -4.30273438 17.10351562 C-5.2077297 19.06629769 -6.10465652 21.03279639 -7 23 C-7.99 22.67 -8.98 22.34 -10 22 C-9.72027344 21.44957031 -9.44054687 20.89914063 -9.15234375 20.33203125 C-5.8604966 13.67022532 -2.88988187 6.84445707 0 0 Z " fill="#132A5A" transform="translate(168,125)"/>
<path d="M0 0 C4.10936158 4.72576582 6.64731057 10.92670053 8 17 C4.27885429 14.68462045 1.38770339 12.71420527 -1 9 C-0.34 9 0.32 9 1 9 C0.67 8.34 0.34 7.68 0 7 C-0.04022391 4.6670134 -0.04320247 2.33293334 0 0 Z " fill="#2C53A0" transform="translate(228,244)"/>
<path d="M0 0 C0.66 0.33 1.32 0.66 2 1 C1.03900391 2.051875 1.03900391 2.051875 0.05859375 3.125 C-1.23884766 4.548125 -1.23884766 4.548125 -2.5625 6 C-3.2421582 6.74515869 -3.2421582 6.74515869 -3.93554688 7.50537109 C-7.2310441 11.12832048 -10.45511053 14.80529846 -13.625 18.5390625 C-15 20 -15 20 -17 21 C-16.1875 18.5625 -16.1875 18.5625 -15 16 C-14.01 15.67 -13.02 15.34 -12 15 C-12 14.34 -12 13.68 -12 13 C-11.34 13 -10.68 13 -10 13 C-9.814375 12.0409375 -9.814375 12.0409375 -9.625 11.0625 C-9.41875 10.381875 -9.2125 9.70125 -9 9 C-8.34 8.67 -7.68 8.34 -7 8 C-6.731875 7.21625 -6.46375 6.4325 -6.1875 5.625 C-4.70672116 2.3516994 -3.2344684 1.45551078 0 0 Z " fill="#2A54A7" transform="translate(143,138)"/>
<path d="M0 0 C0.66 0.99 1.32 1.98 2 3 C0.5921185 5.88280498 -0.81777196 8.70387944 -2.5 11.4375 C-4.31280565 14.53437632 -5.63403531 17.68265717 -7 21 C-7.66 21 -8.32 21 -9 21 C-6.76686274 13.55620912 -3.59727921 6.88023305 0 0 Z " fill="#3367B6" transform="translate(138,192)"/>
<path d="M0 0 C1.5 1.375 1.5 1.375 3 3 C3 3.66 3 4.32 3 5 C3.99 4.67 4.98 4.34 6 4 C6.268125 5.258125 6.53625 6.51625 6.8125 7.8125 C7.5965676 10.9767728 8.21626853 13.06349115 11 15 C11.33 15 11.66 15 12 15 C12 16.98 12 18.96 12 21 C8.97371247 18.31631106 6.97378262 15.03840471 4.875 11.625 C4.33552734 10.77808594 4.33552734 10.77808594 3.78515625 9.9140625 C1.75840544 6.63482524 0.47416301 3.83640977 0 0 Z " fill="#1D2A49" transform="translate(279,216)"/>
<path d="M0 0 C1.19358871 4.0947934 0.70156366 6.00502444 -1 10 C-5.9347079 18.9347079 -5.9347079 18.9347079 -9 22 C-8.4560915 16.52638111 -6.44606199 12.41682999 -3.9375 7.625 C-3.37192383 6.52091797 -3.37192383 6.52091797 -2.79492188 5.39453125 C-1.87055636 3.59260354 -0.93627386 1.79576901 0 0 Z " fill="#3E7ACF" transform="translate(152,164)"/>
<path d="M0 0 C3.87733625 1.6132652 6.51726426 4.14949362 9.5625 7 C12.32029678 9.57444258 14.85954694 11.90636463 18 14 C17.67 14.99 17.34 15.98 17 17 C16.19175781 16.25234375 15.38351563 15.5046875 14.55078125 14.734375 C13.47143316 13.73949763 12.39200163 12.74471077 11.3125 11.75 C10.78205078 11.25886719 10.25160156 10.76773438 9.70507812 10.26171875 C7.22932333 7.98341679 4.77287637 5.8246765 2.10546875 3.765625 C1.41066406 3.18296875 0.71585938 2.6003125 0 2 C0 1.34 0 0.68 0 0 Z " fill="#3556A6" transform="translate(207,235)"/>
<path d="M0 0 C2.67839124 1.33919562 3.02633751 2.75205975 4.3125 5.4375 C6.46295178 9.89155146 8.69456228 14.29180437 10.984375 18.67578125 C12.0491726 21.11252961 12.57369077 23.3819053 13 26 C10.47855112 23.72250324 9.04006071 21.46579923 7.51953125 18.4375 C7.07802734 17.55835938 6.63652344 16.67921875 6.18164062 15.7734375 C5.72982422 14.85820312 5.27800781 13.94296875 4.8125 13 C4.34908203 12.08476562 3.88566406 11.16953125 3.40820312 10.2265625 C2.97056641 9.34742188 2.53292969 8.46828125 2.08203125 7.5625 C1.68218018 6.75941406 1.2823291 5.95632812 0.87036133 5.12890625 C0 3 0 3 0 0 Z " fill="#192A53" transform="translate(213,211)"/>
<path d="M0 0 C0.61328125 1.78515625 0.61328125 1.78515625 1 4 C0.06268951 5.77765783 -0.88569117 7.55365664 -1.95703125 9.25390625 C-3.14879485 11.11537849 -3.14879485 11.11537849 -4 13.875 C-5 16 -5 16 -7.125 16.8125 C-7.74375 16.874375 -8.3625 16.93625 -9 17 C-7.51481201 12.95698825 -5.57122002 9.38853744 -3.375 5.6875 C-2.74335937 4.61886719 -2.11171875 3.55023438 -1.4609375 2.44921875 C-0.97882813 1.64097656 -0.49671875 0.83273438 0 0 Z " fill="#305BB0" transform="translate(95,161)"/>
<path d="M0 0 C2.96926381 3.55391974 5.42318536 7.18517995 7.75 11.1875 C8.67039063 12.75564453 8.67039063 12.75564453 9.609375 14.35546875 C11 17 11 17 11 19 C9.35 18.67 7.7 18.34 6 18 C6 16.35 6 14.7 6 13 C5.34 12.67 4.68 12.34 4 12 C2.6250851 9.09740189 2 7.23861295 2 4 C1.01 3.67 0.02 3.34 -1 3 C-0.67 2.01 -0.34 1.02 0 0 Z " fill="#305CA9" transform="translate(204,89)"/>
<path d="M0 0 C3.75839224 2.50559483 4.89375466 5.45680835 6.6875 9.4375 C7.00783203 10.11876953 7.32816406 10.80003906 7.65820312 11.50195312 C9.03274887 14.49430111 10 16.67011663 10 20 C9.01 20 8.02 20 7 20 C6.82984375 19.443125 6.6596875 18.88625 6.484375 18.3125 C4.96184369 13.51814608 3.19283766 9.13752474 0.76953125 4.7265625 C0 3 0 3 0 0 Z " fill="#355CA4" transform="translate(210,209)"/>
<path d="M0 0 C0.66 0 1.32 0 2 0 C2.66 1.98 3.32 3.96 4 6 C4.66 6 5.32 6 6 6 C6.67119549 7.4562545 7.33681807 8.91507867 8 10.375 C8.556875 11.59316406 8.556875 11.59316406 9.125 12.8359375 C10 15 10 15 10 17 C7 16 7 16 5.83203125 14.15234375 C5.49558594 13.42144531 5.15914062 12.69054687 4.8125 11.9375 C4.29623047 10.83728516 4.29623047 10.83728516 3.76953125 9.71484375 C3.51558594 9.14894531 3.26164063 8.58304688 3 8 C2.01 8.495 2.01 8.495 1 9 C0.67 6.03 0.34 3.06 0 0 Z " fill="#2C4884" transform="translate(170,31)"/>
<path d="M0 0 C2.95749791 3.46741134 5.07848152 6.86873527 7 11 C7.33 11 7.66 11 8 11 C8 12.65 8 14.3 8 16 C8.99 16 9.98 16 11 16 C10.67 17.65 10.34 19.3 10 21 C6.85365982 17.34750945 4.74491029 13.75775745 2.75 9.375 C2.22921875 8.24835938 1.7084375 7.12171875 1.171875 5.9609375 C0 3 0 3 0 0 Z " fill="#1B3060" transform="translate(185,154)"/>
<path d="M0 0 C0.66 0 1.32 0 2 0 C1.50485982 4.34037775 -1.31113872 7.08612375 -4.0625 10.25 C-4.53494141 10.80429688 -5.00738281 11.35859375 -5.49414062 11.9296875 C-6.65658967 13.291749 -7.82747855 14.64659956 -9 16 C-9.33 14.68 -9.66 13.36 -10 12 C-9.38125 11.773125 -8.7625 11.54625 -8.125 11.3125 C-5.35871763 9.60391383 -5.09758944 8.00007779 -4 5 C-2.4375 3.3125 -2.4375 3.3125 -1 2 C-0.67 1.34 -0.34 0.68 0 0 Z " fill="#2A52A7" transform="translate(155,122)"/>
<path d="M0 0 C3.07637348 2.05091565 3.58998859 2.72227002 5.04296875 5.9140625 C5.39423828 6.67460937 5.74550781 7.43515625 6.10742188 8.21875 C6.46384766 9.0128125 6.82027344 9.806875 7.1875 10.625 C7.55552734 11.42679688 7.92355469 12.22859375 8.30273438 13.0546875 C9.20950898 15.03310482 10.1082107 17.01479395 11 19 C10.01 19 9.02 19 8 19 C7.75765625 18.43152344 7.5153125 17.86304688 7.265625 17.27734375 C5.59816746 13.43577811 3.90537271 9.71985376 1.75 6.125 C0 3 0 3 0 0 Z " fill="#18253F" transform="translate(226,238)"/>
<path d="M0 0 C3.49883745 1.58012014 4.30436658 2.60873316 6 6 C6.92039063 6.42925781 6.92039063 6.42925781 7.859375 6.8671875 C10.44980304 8.23803445 11.56287115 9.74768208 13.25 12.125 C13.77078125 12.84945312 14.2915625 13.57390625 14.828125 14.3203125 C15.40820312 15.15175781 15.40820312 15.15175781 16 16 C15.67 16.66 15.34 17.32 15 18 C9.66917468 12.2190161 4.56507679 6.40900977 0 0 Z " fill="#31559B" transform="translate(239,187)"/>
<path d="M0 0 C0.66 0 1.32 0 2 0 C3.37482707 1.63260714 4.70647667 3.30225062 6 5 C6.66 5.66 7.32 6.32 8 7 C9.58663053 10.84131602 10.20808894 13.04158091 9 17 C7.49743011 14.35559624 5.9978388 11.70958148 4.5 9.0625 C4.07074219 8.30775391 3.64148438 7.55300781 3.19921875 6.77539062 C2.79316406 6.05673828 2.38710937 5.33808594 1.96875 4.59765625 C1.59169922 3.93258057 1.21464844 3.26750488 0.82617188 2.58227539 C0 1 0 1 0 0 Z " fill="#1D2F58" transform="translate(246,160)"/>
<path d="M0 0 C0.66 0 1.32 0 2 0 C0.94851925 2.18384464 -0.15669169 4.25206924 -1.4375 6.3125 C-2.69034584 8.46739485 -3.63346321 10.45556065 -4.5625 12.75 C-6 16 -6 16 -8 17 C-6.79293461 10.36114037 -4.4118187 5.17909151 0 0 Z " fill="#468ADA" transform="translate(168,36)"/>
<path d="M0 0 C3.67882073 3.28466137 5.75150101 6.66360908 8 11 C8 11.66 8 12.32 8 13 C7.34 13 6.68 13 6 13 C6 12.34 6 11.68 6 11 C4.68 11 3.36 11 2 11 C1.855625 10.2575 1.71125 9.515 1.5625 8.75 C1.22422828 7.09622716 0.85788484 5.44732994 0.4375 3.8125 C0 2 0 2 0 0 Z " fill="#355FAD" transform="translate(259,185)"/>
<path d="M0 0 C0.66 0.99 1.32 1.98 2 3 C0.880462 5.51896049 -0.31981552 7.39734655 -2.0625 9.5625 C-4.16384349 11.92026019 -4.16384349 11.92026019 -5 15 C-5.66 14.67 -6.32 14.34 -7 14 C-5.23570801 9.02790438 -2.6060834 4.56561939 0 0 Z " fill="#3568BB" transform="translate(109,136)"/>
<path d="M0 0 C2.14909962 2.76854598 4.01778828 5.57834526 5.75 8.625 C6.19859375 9.40101563 6.6471875 10.17703125 7.109375 10.9765625 C7.40328125 11.64429688 7.6971875 12.31203125 8 13 C7.67 13.66 7.34 14.32 7 15 C6.34 13.68 5.68 12.36 5 11 C4.34 11 3.68 11 3 11 C1 8 1 8 1 5 C0.34 5 -0.32 5 -1 5 C-0.67 3.35 -0.34 1.7 0 0 Z " fill="#284992" transform="translate(290,237)"/>
<path d="M0 0 C2.03288895 2.60536918 3.74969771 5.18037686 5.25 8.125 C5.60578125 8.80820313 5.9615625 9.49140625 6.328125 10.1953125 C6.54984375 10.79085937 6.7715625 11.38640625 7 12 C6.67 12.66 6.34 13.32 6 14 C3.5625 12.625 3.5625 12.625 1 10 C0.25976342 6.67414834 0.07139201 3.40085565 0 0 Z " fill="#315AA7" transform="translate(199,185)"/>
<path d="M0 0 C3.29696105 1.09898702 4.04670589 1.94597387 6.1875 4.5625 C6.71730469 5.20316406 7.24710937 5.84382812 7.79296875 6.50390625 C8.19128906 6.99761719 8.58960938 7.49132812 9 8 C8.67 8.66 8.34 9.32 8 10 C7.608125 9.525625 7.21625 9.05125 6.8125 8.5625 C4.59191626 6.64820367 2.86624291 6.38733012 0 6 C0 4.02 0 2.04 0 0 Z " fill="#0F203B" transform="translate(250,201)"/>
<path d="M0 0 C2.62901288 1.52206009 4.84365964 2.84365964 7 5 C6.625 8.125 6.625 8.125 6 11 C5.01 10.34 4.02 9.68 3 9 C2.8125 5.875 2.8125 5.875 3 3 C2.01 3 1.02 3 0 3 C0 2.01 0 1.02 0 0 Z " fill="#0B162C" transform="translate(235,185)"/>
<path d="M0 0 C0.66 0 1.32 0 2 0 C2.19335938 0.61488281 2.38671875 1.22976562 2.5859375 1.86328125 C2.84632813 2.67152344 3.10671875 3.47976562 3.375 4.3125 C3.63023437 5.11300781 3.88546875 5.91351563 4.1484375 6.73828125 C4.98831811 9.22724528 4.98831811 9.22724528 7 12 C6.67 12.99 6.34 13.98 6 15 C4.80017556 13.07010782 3.61547182 11.13080772 2.4375 9.1875 C1.44556641 7.56908203 1.44556641 7.56908203 0.43359375 5.91796875 C-1 3 -1 3 0 0 Z " fill="#1C3262" transform="translate(208,91)"/>
<path d="M0 0 C5.40489519 1.52012677 8.98492628 5.27385218 13 9 C12.34 9.66 11.68 10.32 11 11 C9.16365304 9.35742342 7.3308593 7.71117305 5.5 6.0625 C4.97535156 5.59392578 4.45070312 5.12535156 3.91015625 4.64257812 C2.5878256 3.44904592 1.29166061 2.22665821 0 1 C0 0.67 0 0.34 0 0 Z " fill="#2D4B97" transform="translate(192,223)"/>
<path d="M0 0 C2 1.8125 2 1.8125 4 4 C4 4.99 4 5.98 4 7 C4.99 6.67 5.98 6.34 7 6 C6.34 7.32 5.68 8.64 5 10 C3.62437146 8.71034824 2.29233607 7.37310707 1 6 C1 5.34 1 4.68 1 4 C0.34 4 -0.32 4 -1 4 C-0.67 2.68 -0.34 1.36 0 0 Z " fill="#2C56B1" transform="translate(283,231)"/>
<path d="M0 0 C0.66 0 1.32 0 2 0 C3.1484375 1.390625 3.1484375 1.390625 4.375 3.25 C6.35363754 6.14456471 8.41625304 8.6076417 11 11 C8 11 8 11 5.95703125 9.1015625 C5.24933594 8.28429687 4.54164063 7.46703125 3.8125 6.625 C3.09707031 5.81289062 2.38164062 5.00078125 1.64453125 4.1640625 C0 2 0 2 0 0 Z " fill="#3D62B5" transform="translate(275,227)"/>
<path d="M0 0 C0.66 0 1.32 0 2 0 C1.39254603 4.85963179 -0.72758967 8.7405518 -3 13 C-3.93045933 10.44855176 -4.08564091 9.25993522 -3.22265625 6.640625 C-2.83980469 5.85171875 -2.45695313 5.0628125 -2.0625 4.25 C-1.68222656 3.45078125 -1.30195313 2.6515625 -0.91015625 1.828125 C-0.60980469 1.22484375 -0.30945313 0.6215625 0 0 Z " fill="#16376D" transform="translate(158,147)"/>
<path d="M0 0 C0.66 0.33 1.32 0.66 2 1 C1.2368139 2.60781893 0.46412942 4.21113138 -0.3125 5.8125 C-0.74175781 6.70582031 -1.17101562 7.59914063 -1.61328125 8.51953125 C-2.88221789 10.78931933 -4.06556898 12.29248171 -6 14 C-5.41892368 10.2397015 -4.34800504 7.46964968 -2.4375 4.1875 C-1.98246094 3.39730469 -1.52742187 2.60710937 -1.05859375 1.79296875 C-0.53458984 0.90544922 -0.53458984 0.90544922 0 0 Z " fill="#3F7AD1" transform="translate(137,88)"/>
<path d="M0 0 C5.32697239 1.45281065 8.36402802 5.08111378 12 9 C11.67 9.66 11.34 10.32 11 11 C9.0625 10.1875 9.0625 10.1875 7 9 C6.67 8.01 6.34 7.02 6 6 C5.34 5.67 4.68 5.34 4 5 C4 4.34 4 3.68 4 3 C2.68 2.34 1.36 1.68 0 1 C0 0.67 0 0.34 0 0 Z " fill="#0F1B3C" transform="translate(221,250)"/>
<path d="M0 0 C2.64752004 2.57784846 4.94432065 4.91648098 7 8 C4.36 8 1.72 8 -1 8 C-0.649375 7.236875 -0.29875 6.47375 0.0625 5.6875 C1.32360884 2.95240621 1.32360884 2.95240621 0 0 Z " fill="#0E1B3D" transform="translate(207,151)"/>
<path d="M0 0 C2 1 2 1 2.8515625 3.28515625 C3.10679687 4.20167969 3.36203125 5.11820313 3.625 6.0625 C3.88539063 6.98160156 4.14578125 7.90070313 4.4140625 8.84765625 C4.60742188 9.55792969 4.80078125 10.26820313 5 11 C-0.875 7.25 -0.875 7.25 -2 5 C-1.01 5 -0.02 5 1 5 C0.67 3.35 0.34 1.7 0 0 Z " fill="#334D82" transform="translate(231,250)"/>
<path d="M0 0 C1.32 1.32 2.64 2.64 4 4 C-0.75 8 -0.75 8 -3 8 C-1.125 1.125 -1.125 1.125 0 0 Z " fill="#30509C" transform="translate(110,251)"/>
<path d="M0 0 C1.796875 0.83984375 1.796875 0.83984375 2.796875 2.83984375 C1.745 2.68515625 1.745 2.68515625 0.671875 2.52734375 C-3.51044811 2.98194409 -5.15513613 5.00450526 -8.203125 7.83984375 C-8.863125 7.50984375 -9.523125 7.17984375 -10.203125 6.83984375 C-8.96759224 5.63729851 -7.71410161 4.45318143 -6.453125 3.27734375 C-5.75703125 2.61605469 -5.0609375 1.95476562 -4.34375 1.2734375 C-2.203125 -0.16015625 -2.203125 -0.16015625 0 0 Z " fill="#0A1641" transform="translate(171.203125,206.16015625)"/>
<path d="M0 0 C0.66 0.66 1.32 1.32 2 2 C1.60495559 4.9628331 0.40182371 7.38326241 -1 10 C-1.66 10 -2.32 10 -3 10 C-2.49287967 6.28111761 -1.88391785 3.26545761 0 0 Z " fill="#366FC3" transform="translate(142,184)"/>
<path d="M0 0 C2.91488977 2.6234008 4.88503898 5.71816394 7 9 C6.67 9.66 6.34 10.32 6 11 C4.5 9.625 4.5 9.625 3 8 C3 7.34 3 6.68 3 6 C2.01 6 1.02 6 0 6 C0 4.02 0 2.04 0 0 Z " fill="#335FA9" transform="translate(220,117)"/>
<path d="M0 0 C0 4.24008655 -1.10118649 8.20237298 -3 12 C-3.66 12 -4.32 12 -5 12 C-4.74337755 10.55989519 -4.46909179 9.1229313 -4.1875 7.6875 C-4.03667969 6.88699219 -3.88585937 6.08648437 -3.73046875 5.26171875 C-2.92427764 2.76554413 -1.97947998 1.67577894 0 0 Z " fill="#1F2E5C" transform="translate(110,249)"/>
<path d="M0 0 C0.33 0 0.66 0 1 0 C1.50423019 5.29441695 0.18923033 7.81413519 -3 12 C-3.88336837 9.5332355 -4.1312406 8.36140628 -3.22265625 5.859375 C-2.83980469 5.16328125 -2.45695312 4.4671875 -2.0625 3.75 C-1.68222656 3.04359375 -1.30195312 2.3371875 -0.91015625 1.609375 C-0.60980469 1.07828125 -0.30945313 0.5471875 0 0 Z " fill="#2B55AA" transform="translate(125,219)"/>
<path d="M0 0 C0.66 1.32 1.32 2.64 2 4 C-0.97 6.475 -0.97 6.475 -4 9 C-3.35455571 5.51460083 -1.89865603 2.97180943 0 0 Z " fill="#2D4587" transform="translate(45,248)"/>
<path d="M0 0 C3.94139078 1.66751148 6.7892812 4.22710649 10 7 C9.01 7.495 9.01 7.495 8 8 C7.01 7.67 6.02 7.34 5 7 C5 6.34 5 5.68 5 5 C4.34 5 3.68 5 3 5 C3 4.34 3 3.68 3 3 C2.34 3 1.68 3 1 3 C0.67 2.01 0.34 1.02 0 0 Z " fill="#0B1538" transform="translate(199,231)"/>
<path d="M0 0 C2.40575607 2.18517099 3.79535581 4.25919671 5.1875 7.1875 C5.53167969 7.90292969 5.87585938 8.61835938 6.23046875 9.35546875 C6.48441406 9.89816406 6.73835937 10.44085938 7 11 C6.01 11 5.02 11 4 11 C3.32591692 9.73308493 2.66099503 8.46129251 2 7.1875 C1.62875 6.47980469 1.2575 5.77210938 0.875 5.04296875 C0 3 0 3 0 0 Z " fill="#182D5C" transform="translate(207,199)"/>
<path d="M0 0 C3.7634889 1.2544963 5.39056445 3.04721767 8 6 C8.8125 8.3125 8.8125 8.3125 9 10 C8.34 10 7.68 10 7 10 C5.2734375 8.06640625 5.2734375 8.06640625 3.375 5.5625 C2.74335938 4.73878906 2.11171875 3.91507813 1.4609375 3.06640625 C0 1 0 1 0 0 Z " fill="#234492" transform="translate(198,139)"/>
<path d="M0 0 C0.66 0 1.32 0 2 0 C1.67 4.62 1.34 9.24 1 14 C0.67 14 0.34 14 0 14 C0 10.7 0 7.4 0 4 C-0.66 3.67 -1.32 3.34 -2 3 C-1.34 2.01 -0.68 1.02 0 0 Z " fill="#1A49A5" transform="translate(170,78)"/>
<path d="M0 0 C2.89932357 2.39509338 3.50168276 4.31245243 4 8 C4.66 8 5.32 8 6 8 C6 8.66 6 9.32 6 10 C5.01 9.67 4.02 9.34 3 9 C3 8.01 3 7.02 3 6 C2.01 5.67 1.02 5.34 0 5 C0 3.35 0 1.7 0 0 Z " fill="#284C94" transform="translate(183,53)"/>
<path d="M0 0 C3.80026809 2.53351206 4.50840015 4.74894043 6 9 C5.67 9.99 5.34 10.98 5 12 C4.15885829 10.56705502 3.32734313 9.12845595 2.5 7.6875 C1.80390625 6.48673828 1.80390625 6.48673828 1.09375 5.26171875 C0 3 0 3 0 0 Z " fill="#1A2848" transform="translate(291,237)"/>
<path d="M0 0 C2.25245881 2.68841859 3.88213958 4.64641875 5 8 C4.01 8.33 3.02 8.66 2 9 C0.14223235 5.86501708 -0.20140476 3.62528568 0 0 Z " fill="#294A93" transform="translate(285,229)"/>
<path d="M0 0 C0 4.05164344 -1.61357669 5.79537442 -4 9 C-4.99 9.66 -5.98 10.32 -7 11 C-5.5140084 6.40693504 -3.14985318 3.56430755 0 0 Z " fill="#1C52B3" transform="translate(155,98)"/>
<path d="M0 0 C0.33 0 0.66 0 1 0 C1.25 5.625 1.25 5.625 -1 9 C-1.66 9 -2.32 9 -3 9 C-2.01 6.03 -1.02 3.06 0 0 Z " fill="#2E5DAD" transform="translate(132,204)"/>
<path d="M0 0 C0.33 0 0.66 0 1 0 C1 2.64 1 5.28 1 8 C-0.32 7.34 -1.64 6.68 -3 6 C-2 4 -1 2 0 0 Z " fill="#2153B2" transform="translate(169,177)"/>
<path d="M0 0 C4.1424367 1.38081223 5.32203099 3.59825558 8 7 C7.67 7.66 7.34 8.32 7 9 C5.83037314 7.69013727 4.66437056 6.3770374 3.5 5.0625 C2.8503125 4.33160156 2.200625 3.60070312 1.53125 2.84765625 C0 1 0 1 0 0 Z " fill="#2B4F98" transform="translate(222,167)"/>
<path d="M0 0 C0.99 0.33 1.98 0.66 3 1 C0.525 5.455 0.525 5.455 -2 10 C-3.39195915 5.82412255 -1.82323219 3.86525224 0 0 Z " fill="#192D58" transform="translate(90,165)"/>
<path d="M0 0 C0.66 0.33 1.32 0.66 2 1 C1.04663979 2.31611677 0.08714226 3.62778961 -0.875 4.9375 C-1.40867188 5.66839844 -1.94234375 6.39929688 -2.4921875 7.15234375 C-4 9 -4 9 -6 10 C-4.6302836 6.00499382 -2.74277578 3.19990508 0 0 Z " fill="#1E55B6" transform="translate(143,114)"/>
<path d="M0 0 C3 1 3 1 4.6875 3.9375 C6 7 6 7 6 9 C3 8 3 8 1.3125 5.0625 C0 2 0 2 0 0 Z " fill="#2A4C91" transform="translate(174,39)"/>
<path d="M0 0 C3.34098676 2.22732451 3.90203779 3.24862913 5 7 C4.67 7.99 4.34 8.98 4 10 C0 3.375 0 3.375 0 0 Z " fill="#1A2B4E" transform="translate(226,238)"/>
<path d="M0 0 C0.75 1.75 0.75 1.75 1 4 C-0.9375 6.25 -0.9375 6.25 -3 8 C-3 4.42424104 -1.91159393 2.94704065 0 0 Z " fill="#284690" transform="translate(62,218)"/>
<path d="M0 0 C0.33 0.66 0.66 1.32 1 2 C-0.32 3.32 -1.64 4.64 -3 6 C-3.99 5.67 -4.98 5.34 -6 5 C-4.02 3.35 -2.04 1.7 0 0 Z " fill="#0D1223" transform="translate(85,211)"/>
<path d="M0 0 C0.66 0 1.32 0 2 0 C0.90931332 3.77545388 0.0916909 6.47043472 -3 9 C-2.67 7.02 -2.34 5.04 -2 3 C-1.34 3 -0.68 3 0 3 C0 2.01 0 1.02 0 0 Z " fill="#1C3352" transform="translate(168,31)"/>
</svg>
